<?xml version="1.0" encoding="UTF-8"?>
<svg width="14px" height="14px" viewBox="0 0 14 14" version="1.1" xmlns="http://www.w3.org/2000/svg" xmlns:xlink="http://www.w3.org/1999/xlink">
    <!-- Generator: Sketch 42 (36781) - http://www.bohemiancoding.com/sketch -->
    <title>Fill 2</title>
    <desc>Created with Sketch.</desc>
    <defs></defs>
    <g id="Page-1" stroke="none" stroke-width="1" fill="none" fill-rule="evenodd">
        <g id="Desktop-HD" transform="translate(-1486.000000, -195.000000)" fill="#FFFFFF">
            <g id="Group-4" transform="translate(1145.000000, 166.000000)">
                <g id="Group-3" transform="translate(336.000000, 24.000000)">
                    <path d="M12,19 C15.8658327,19 19,15.8658327 19,12 C19,8.13416727 15.8658327,5 12,5 C8.13416727,5 5,8.13416727 5,12 C5,15.8658327 8.13416727,19 12,19 Z M15.8181818,12.6363636 L15.8181818,12.2386415 C15.9772727,12.159097 16.1363636,12 16.4545455,12 C17.0909091,12 16.4545455,11.3636364 17.0909091,12 C17.7272727,12.6363636 16.4545455,13.2727273 17.0909091,13.9090909 C17.1815904,13.9997722 17.2722717,14.0204556 17.3613585,13.9965914 C17.156928,14.5438641 16.8721629,15.0513667 16.5197702,15.5055776 C16.6621568,15.1603529 16.9628422,15.0537492 16.4545434,14.5454729 C15.8181798,13.9091092 15.8181798,13.2727456 15.8181798,13.2727456 L15.8181818,12.6363636 Z M8.18181818,12.6363636 C9.45454545,12 8.18181818,12 7.54545455,10.7272727 C6.90909091,9.45454545 8.81818182,10.0909091 9.45454545,9.45454545 C10.0909091,8.81818182 10.7272727,8.81818182 9.45454545,8.18181818 C8.78476509,7.84693818 8.99715782,7.33705309 9.34715985,6.92898618 C10.1410159,6.51136873 11.0430639,6.27272727 11.9999308,6.27272727 C12.4342464,6.27272727 12.8558348,6.32522676 13.2615191,6.41750051 C13.5645911,7.22090705 13.6807249,8.41012305 13.272656,8.8181696 C12.6362924,9.45453324 11.9999287,10.0908969 12.6362924,10.0908969 C13.272656,10.0908969 13.272656,11.3636241 13.9090196,10.7272605 C14.5453833,10.0908969 15.1817469,10.0908969 15.1817469,10.7272605 C15.1817469,11.3636241 14.5453833,11.3636241 15.1817469,11.9999878 C15.2151555,12.0333964 15.24061,12.0501007 15.2708378,12.0771476 C15.0274313,12.1551017 14.8595942,12.3142007 15.1817469,12.6363535 C15.6319665,13.0865731 12.6362924,12.6363535 13.9090196,13.9090807 C15.1817469,15.181808 15.8181105,15.181808 15.8181105,15.181808 C15.8181105,15.181808 14.5453833,15.181808 14.5453833,15.8181716 C14.5453833,16.4545353 13.9090196,15.8181716 14.5453833,16.4545353 C15.05368,16.962832 15.1610575,16.6621425 15.505488,16.519762 C14.5350385,17.2738479 13.3210807,17.7272646 11.999888,17.7272646 C11.8487511,17.7272646 11.6991985,17.7161277 11.5512567,17.7041967 C12.1128451,17.5960148 12.5726153,17.0272687 11.999888,16.4545414 C11.3635244,15.8181777 11.3635244,15.8181777 11.3635244,15.1818141 C11.3635244,14.5454505 12.6362516,14.5454505 12.6362516,13.9090868 C12.6362516,13.2727232 10.7271607,12.4860148 10.7271607,13.9090868 C10.7271607,14.5454505 10.7271607,15.1818141 9.45443345,15.1818141 C8.18170618,15.1818141 8.58262545,16.1880628 8.81806982,16.4545414 C9.15294982,16.833977 9.97307491,17.3120337 10.6500029,17.5602257 C8.49593745,17.0368192 6.81430836,15.2972148 6.38239564,13.1089385 C6.86523782,13.1216657 7.52149673,12.9665519 8.18170618,12.636441 L8.18181818,12.6363636 Z" id="Fill-2"></path>
                </g>
            </g>
        </g>
    </g>
</svg>